HIERARCHY
ROOT Hips
{
	OFFSET 0.00 0.00 0.00
	CHANNELS 6 Xposition Yposition Zposition Xrotation Yrotation Zrotation
	JOINT RightUpLeg
	{
		OFFSET -3.76699 0.00000 0.00000
		CHANNELS 3 Xrotation Yrotation Zrotation
		JOINT RightLeg
		{
			OFFSET 0.00000 -18.01768 0.00000
			CHANNELS 3 Xrotation Yrotation Zrotation
			JOINT RightFoot
			{
				OFFSET 0.00000 -16.88108 0.00000
				CHANNELS 3 Xrotation Yrotation Zrotation
				JOINT RightToeBase
				{
					OFFSET 0.00000 -1.49359 5.57418
					CHANNELS 3 Xrotation Yrotation Zrotation
					End Site
					{
						OFFSET 0.00000 0.00000 2.95275
					}
				}
			}
		}
	}
	JOINT LeftUpLeg
	{
		OFFSET 3.76699 0.00000 0.00000
		CHANNELS 3 Xrotation Yrotation Zrotation
		JOINT LeftLeg
		{
			OFFSET 0.00000 -18.01768 0.00000
			CHANNELS 3 Xrotation Yrotation Zrotation
			JOINT LeftFoot
			{
				OFFSET 0.00000 -16.88108 0.00000
				CHANNELS 3 Xrotation Yrotation Zrotation
				JOINT LeftToeBase
				{
					OFFSET 0.00000 -1.49359 5.57418
					CHANNELS 3 Xrotation Yrotation Zrotation
					End Site
					{
						OFFSET 0.00000 0.00000 2.95275
					}
				}
			}
		}
	}
	JOINT Spine
	{
		OFFSET 0.00000 7.77970 0.00000
		CHANNELS 3 Xrotation Yrotation Zrotation
		JOINT RightShoulder
		{
			OFFSET 0.00000 10.94176 0.00000
			CHANNELS 3 Xrotation Yrotation Zrotation
			JOINT RightArm
			{
				OFFSET -7.70894 0.00000 0.00000
				CHANNELS 3 Xrotation Yrotation Zrotation
				JOINT RightForeArm
				{
					OFFSET -11.52135 0.00000 0.00000
					CHANNELS 3 Yrotation Zrotation Xrotation
					JOINT RightHand
					{
						OFFSET -10.17590 0.00000 0.00000
						CHANNELS 3 Xrotation Yrotation Zrotation
						End Site
						{
							OFFSET -3.93700 0.00000 0.00000
						}
						JOINT RightHandThumb1
						{
							OFFSET 0.00000 0.00000 0.00000
							CHANNELS 3 Xrotation Zrotation Yrotation
							End Site
							{
								OFFSET 0.00000 0.00000 3.93700
							}
						}
					}
				}
			}
		}
		JOINT LeftShoulder
		{
			OFFSET 0.00000 10.94176 0.00000
			CHANNELS 3 Xrotation Yrotation Zrotation
			JOINT LeftArm
			{
				OFFSET 7.70894 0.00000 0.00000
				CHANNELS 3 Xrotation Yrotation Zrotation
				JOINT LeftForeArm
				{
					OFFSET 11.52135 0.00000 0.00000
					CHANNELS 3 Yrotation Zrotation Xrotation
					JOINT LeftHand
					{
						OFFSET 10.17590 0.00000 0.00000
						CHANNELS 3 Xrotation Yrotation Zrotation
						End Site
						{
							OFFSET 3.93700 0.00000 0.00000
						}
						JOINT LeftHandThumb1
						{
							OFFSET 0.00000 0.00000 0.00000
							CHANNELS 3 Xrotation Zrotation Yrotation
							End Site
							{
								OFFSET 0.00000 0.00000 3.93700
							}
						}
					}
				}
			}
		}
		JOINT Head
		{
			OFFSET 0.00000 16.64604 0.00000
			CHANNELS 3 Xrotation Yrotation Zrotation
			End Site
			{
				OFFSET 0.00000 4.52755 0.00000
			}
		}
	}
}
MOTION
Frames:	17
Frame Time: 0.008333
-2.2486 37.1926 3.5794 -0.6115 2.9945 -2.8296 7.7831 -0.1254 3.2818 -3.7003 0.0000 -0.0000 -5.0051 -21.0866 9.2705 9.3420 -0.0000 -0.0000 9.2467 1.9041 2.7124 -5.3918 0.0000 -0.0000 -8.7904 20.5477 -7.6153 13.9031 -0.0000 -0.0000 4.5844 1.6617 -0.5358 24.3351 -28.2700 -13.1569 -75.8750 -10.4073 31.6514 22.2465 0.0000 -0.6386 -11.8525 -21.6348 -29.6496 33.1476 -0.0000 -26.2537 13.2016 7.3772 26.7433 -24.9046 9.1584 -25.7956 -37.6140 -0.0000 -10.4022 -0.1567 0.9638 9.2353 32.8623 0.0000 24.3270 -1.2154 -14.3561 -0.5144
-2.2486 37.1939 3.5750 -0.6324 2.9756 -2.8392 7.7908 -0.1214 3.2884 -3.6945 0.0000 -0.0000 -4.9827 -21.0722 9.2882 9.2649 -0.0000 -0.0000 9.2591 1.9144 2.7195 -5.3833 0.0000 -0.0000 -8.8065 20.5654 -7.6170 13.9551 -0.0000 -0.0000 4.6238 1.5930 -0.5265 24.5834 -28.2772 -12.8446 -75.9263 -10.9495 32.1668 23.7680 0.0000 -0.3432 -11.9725 -21.8928 -29.6273 33.1476 -0.0000 -26.2537 13.6969 7.6980 26.4292 -24.5041 9.0484 -26.2686 -39.1992 0.0000 -10.9001 -0.1880 1.0864 9.8185 32.8623 0.0000 24.3270 -1.0561 -14.2483 -0.5248
-2.2473 37.1948 3.5703 -0.6428 2.9490 -2.8521 7.7907 -0.1384 3.2925 -3.6919 0.0000 -0.0000 -4.9526 -21.0288 9.3449 9.3073 -0.0000 -0.0000 9.2671 1.8883 2.7342 -5.3867 0.0000 -0.0000 -8.7901 20.6026 -7.6375 13.9496 -0.0000 -0.0000 4.6585 1.5396 -0.5006 24.8402 -28.3108 -12.5204 -75.8002 -11.3942 32.7090 25.3577 0.0000 -0.0719 -12.0688 -22.2507 -29.4514 33.1476 -0.0000 -26.2537 14.2585 8.0422 26.0685 -24.1430 8.8946 -26.7491 -40.7915 0.0000 -11.3509 -0.1717 0.9488 10.2553 32.8623 0.0000 24.3270 -0.9022 -14.0289 -0.5143
-2.2474 37.1950 3.5660 -0.6572 2.9167 -2.8696 7.7896 -0.1341 3.3071 -3.6822 0.0000 -0.0000 -4.9432 -21.0130 9.3708 9.3128 -0.0000 -0.0000 9.2716 1.9505 2.7386 -5.3786 0.0000 -0.0000 -8.7979 20.5948 -7.5757 13.9093 -0.0000 -0.0000 4.7062 1.4824 -0.4809 25.0795 -28.3002 -12.1733 -75.6980 -11.7842 33.2085 26.8536 0.0000 0.3172 -12.0641 -22.7573 -28.9210 33.1476 -0.0000 -26.2537 14.7698 8.4048 25.7105 -23.6100 8.6395 -27.2751 -42.4273 0.0000 -11.7603 -0.1331 0.6833 11.0216 32.8623 0.0000 24.3270 -0.7769 -13.9863 -0.5765
-2.2439 37.1947 3.5612 -0.6775 2.8767 -2.8687 7.7940 -0.1262 3.2946 -3.6734 0.0000 -0.0000 -4.9461 -20.9757 9.3708 9.3617 -0.0000 -0.0000 9.2906 1.9325 2.7320 -5.3778 0.0000 -0.0000 -8.8110 20.6459 -7.5963 13.9129 -0.0000 -0.0000 4.7657 1.4499 -0.4671 25.3983 -28.3310 -11.7742 -75.5404 -12.0687 33.7362 28.3243 0.0000 0.5652 -12.3806 -23.0568 -29.2699 33.1476 -0.0000 -26.2537 15.2740 8.7445 25.3288 -23.1557 8.3773 -27.8211 -44.0713 0.0000 -11.8563 -0.1264 0.6275 11.3905 32.8623 0.0000 24.3270 -0.6727 -13.9557 -0.6055
-2.2404 37.1942 3.5550 -0.6926 2.8167 -2.8699 7.7849 -0.0991 3.2833 -3.6599 0.0000 -0.0000 -4.9448 -20.9571 9.3889 9.3622 -0.0000 -0.0000 9.3025 1.9645 2.7187 -5.3778 0.0000 -0.0000 -8.8389 20.6812 -7.5958 13.9926 -0.0000 -0.0000 4.8164 1.4499 -0.4544 25.6766 -28.3086 -11.4055 -75.2243 -12.3672 34.2154 29.8681 -0.0000 0.6388 -12.8204 -23.3120 -29.9011 33.1476 -0.0000 -26.2537 15.7141 9.0397 24.9652 -22.5198 8.0354 -28.3893 -45.7252 0.0000 -11.9392 -0.0997 0.4834 11.6554 32.8623 0.0000 24.3270 -0.5320 -13.9186 -0.5926
-2.2371 37.1933 3.5505 -0.7193 2.7674 -2.8784 7.7942 -0.0655 3.2799 -3.6516 0.0000 -0.0000 -4.9411 -20.9397 9.3871 9.3562 -0.0000 -0.0000 9.3209 2.0055 2.7154 -5.3678 0.0000 -0.0000 -8.8661 20.6791 -7.5735 14.0190 -0.0000 -0.0000 4.8792 1.4434 -0.4207 25.9727 -28.3283 -11.0112 -74.9984 -12.5916 34.7199 31.2543 0.0000 0.7710 -13.1741 -23.5895 -30.3240 33.1476 -0.0000 -26.2537 16.2023 9.3570 24.5958 -21.9642 7.6620 -29.0205 -47.3255 0.0000 -11.8276 -0.0624 0.2990 11.7869 32.8623 0.0000 24.3270 -0.3845 -13.8540 -0.6216
-2.2314 37.1926 3.5455 -0.7497 2.7066 -2.8895 7.8098 -0.0473 3.2772 -3.6531 0.0000 -0.0000 -4.9315 -20.9165 9.4127 9.3678 -0.0000 -0.0000 9.3442 2.0785 2.7016 -5.3568 0.0000 -0.0000 -8.8947 20.6845 -7.5289 14.0140 -0.0000 -0.0000 4.9474 1.4728 -0.3828 26.3047 -28.3163 -10.6226 -74.7308 -12.8591 35.1685 32.6694 0.0000 0.8699 -13.5472 -23.9057 -30.7356 33.1476 -0.0000 -26.2537 16.6127 9.5885 24.2278 -21.3058 7.3139 -29.6536 -49.0101 0.0000 -11.5608 -0.0289 0.1400 11.6787 32.8623 0.0000 24.3270 -0.2384 -13.7943 -0.6185
-2.2229 37.1913 3.5406 -0.7784 2.6487 -2.8927 7.8477 -0.1020 3.2631 -3.6962 0.0000 -0.0000 -4.8787 -20.8071 9.4141 9.2736 -0.0000 -0.0000 9.3664 2.1405 2.6763 -5.3506 0.0000 -0.0000 -8.9065 20.6727 -7.4393 13.9710 -0.0000 -0.0000 5.0133 1.5105 -0.3449 26.5025 -28.2888 -10.3000 -74.3755 -13.1463 35.6263 34.0377 0.0000 1.0789 -14.2120 -24.0947 -31.8140 33.1476 -0.0000 -26.2537 17.1745 9.8945 23.8295 -20.8305 6.8976 -30.3327 -50.6363 0.0000 -11.2425 0.0339 -0.1702 11.2624 32.8623 0.0000 24.3270 -0.0742 -13.6794 -0.5867
-2.2149 37.1903 3.5364 -0.8125 2.5834 -2.8895 7.8700 -0.0793 3.2399 -3.7028 0.0000 -0.0000 -4.8839 -20.7717 9.4351 9.3556 -0.0000 -0.0000 9.4022 2.1598 2.6530 -5.3502 0.0000 -0.0000 -8.9532 20.7238 -7.4261 14.0526 -0.0000 -0.0000 5.0915 1.5893 -0.3243 26.8929 -28.3250 -9.8405 -74.2075 -13.4121 36.0832 35.3873 -0.0000 1.2015 -14.6516 -24.2693 -32.4594 33.1476 -0.0000 -26.2537 17.6337 10.1052 23.4934 -20.1707 6.4632 -31.0594 -52.3427 0.0000 -10.8272 0.0318 -0.1653 10.8956 32.8623 0.0000 24.3270 0.0491 -13.7793 -0.6271
-2.2071 37.1897 3.5324 -0.8495 2.5179 -2.8911 7.8897 -0.0316 3.2172 -3.7016 0.0000 -0.0000 -4.8650 -20.7502 9.4793 9.3203 -0.0000 -0.0000 9.4092 2.2405 2.6279 -5.2915 0.0000 -0.0000 -9.0062 20.6995 -7.3512 14.0873 -0.0000 -0.0000 5.1814 1.6737 -0.2873 27.1914 -28.3710 -9.4401 -74.0033 -13.7140 36.5627 36.6915 0.0000 1.5398 -14.9634 -24.5437 -32.7577 33.1476 -0.0000 -26.2537 18.2340 10.3945 23.0660 -19.7326 5.9205 -31.7454 -53.9058 -0.0000 -10.2363 0.0859 -0.4679 10.3988 32.8623 0.0000 24.3270 0.1853 -13.8337 -0.5943
-2.1974 37.1891 3.5284 -0.9000 2.4566 -2.8941 7.9229 0.0332 3.1906 -3.6971 0.0000 -0.0000 -4.8524 -20.7479 9.5637 9.3771 -0.0000 -0.0000 9.4579 2.2542 2.6102 -5.2854 0.0000 -0.0000 -9.0223 20.7383 -7.3086 14.0522 -0.0000 -0.0000 5.2888 1.7421 -0.2329 27.4655 -28.4052 -9.1140 -73.8007 -14.0878 37.0594 37.9717 0.0000 1.8749 -15.2687 -24.7709 -33.0852 33.1476 -0.0000 -26.2537 18.7918 10.6396 22.6473 -19.1474 5.3242 -32.4665 -55.5504 -0.0000 -9.8766 0.0635 -0.3614 9.9604 32.8623 0.0000 24.3270 0.3258 -13.7105 -0.5409
-2.1844 37.1877 3.5242 -0.9556 2.3952 -2.8810 7.9642 0.1051 3.1477 -3.7018 0.0000 -0.0000 -4.8443 -20.7529 9.5879 9.3384 -0.0000 -0.0000 9.5280 2.2313 2.5765 -5.3073 0.0000 -0.0000 -9.0195 20.7898 -7.3074 14.0276 -0.0000 -0.0000 5.4147 1.8039 -0.1967 27.8208 -28.4293 -8.7351 -73.6975 -14.4471 37.5230 39.2043 0.0000 2.2317 -15.5903 -24.9968 -33.4369 33.1476 -0.0000 -26.2537 19.3695 10.9139 22.2283 -18.6445 4.6732 -33.2253 -57.0998 0.0000 -9.3213 0.0582 -0.3500 9.4428 32.8623 0.0000 24.3270 0.4191 -13.7735 -0.5869
-2.1727 37.1875 3.5204 -1.0220 2.3308 -2.8748 8.0374 0.0194 3.1258 -3.7306 0.0000 -0.0000 -4.8292 -20.6314 9.5710 9.3818 -0.0000 -0.0000 9.5685 2.2844 2.5405 -5.2516 0.0000 -0.0000 -9.1111 20.7951 -7.1689 14.1539 -0.0000 -0.0000 5.5383 1.8707 -0.1564 28.1335 -28.4113 -8.3751 -73.4775 -14.7831 37.9483 40.4822 0.0000 2.4363 -15.8218 -25.1094 -33.7352 33.1476 -0.0000 -26.2537 19.9376 11.1291 21.7670 -18.0243 3.9761 -33.8851 -58.6637 0.0000 -8.6683 0.0535 -0.3479 8.7514 32.8623 0.0000 24.3270 0.5879 -13.7184 -0.6071
-2.1573 37.1864 3.5134 -1.0839 2.2665 -2.8610 8.0896 -0.0034 3.0829 -3.7460 0.0000 -0.0000 -4.8077 -20.5469 9.5795 9.3316 -0.0000 -0.0000 9.6131 2.2854 2.4944 -5.2148 0.0000 -0.0000 -9.1328 20.8510 -7.1812 14.1069 -0.0000 -0.0000 5.6655 1.9362 -0.1005 28.3974 -28.4514 -8.1159 -73.2949 -15.1864 38.4831 41.6455 0.0000 2.8976 -16.1613 -25.2441 -34.1964 33.1476 -0.0000 -26.2537 20.5010 11.3849 21.3411 -17.5034 3.1504 -34.6586 -60.0511 -0.0000 -7.8594 0.0542 -0.3794 8.1257 32.8623 0.0000 24.3270 0.7272 -13.7150 -0.6045
-2.1417 37.1864 3.5060 -1.1411 2.2056 -2.8516 8.1276 0.0226 3.0416 -3.7476 0.0000 -0.0000 -4.7880 -20.5255 9.6282 9.3542 -0.0000 -0.0000 9.6470 2.2959 2.4564 -5.1750 0.0000 -0.0000 -9.1802 20.8950 -7.1529 14.1600 -0.0000 -0.0000 5.7867 2.0052 -0.0356 28.6497 -28.4558 -7.8717 -73.0516 -15.5739 38.9550 42.8215 -0.0000 3.2271 -16.6009 -25.3421 -34.8584 33.1476 -0.0000 -26.2537 21.0139 11.5506 20.8885 -16.9286 2.3249 -35.3910 -61.4396 -0.0000 -7.1730 0.0471 -0.3570 7.5163 32.8623 0.0000 24.3270 0.8747 -13.6976 -0.6165
-2.1236 37.1866 3.5002 -1.2138 2.1575 -2.8282 8.1921 0.0416 2.9850 -3.7622 0.0000 -0.0000 -4.7751 -20.5052 9.6446 9.3649 -0.0000 -0.0000 9.6973 2.3035 2.3987 -5.1368 0.0000 -0.0000 -9.2128 20.9230 -7.0922 14.1848 -0.0000 -0.0000 5.9346 2.1105 0.0217 28.8395 -28.4873 -7.6312 -72.7797 -15.9760 39.3916 43.9811 0.0000 3.6139 -16.9232 -25.5114 -35.2397 33.1476 -0.0000 -26.2537 21.4728 11.6152 20.5092 -16.2917 1.5355 -36.1946 -62.7808 0.0000 -6.2825 0.0441 -0.3635 6.9168 32.8623 0.0000 24.3270 0.9931 -13.7119 -0.6652
